<svg viewBox="0 0 270 240" xmlns="http://www.w3.org/2000/svg" fill-rule="evenodd" clip-rule="evenodd" stroke-linejoin="round" stroke-miterlimit="1.414"><circle cx="136.949" cy="120" r="120" fill="#d93447"/><g fill="#9e202d" fill-rule="nonzero"><path d="M118.521 196.949l.193.821.604-.143a.662.662 0 0 0 .361-.199c.084-.096.108-.22.072-.371a.316.316 0 0 0-.227-.245.855.855 0 0 0-.446.006l-.557.131zm.533 2.264l.214.905.669-.158a.74.74 0 0 0 .402-.219.41.41 0 0 0 .084-.383.338.338 0 0 0-.122-.2.546.546 0 0 0-.207-.096.788.788 0 0 0-.238-.018 1.477 1.477 0 0 0-.226.033l-.576.136zm2.084-1.338a1.837 1.837 0 0 1 .987.301 1.494 1.494 0 0 1 .625.922c.086.365.085.689-.005.972-.089.283-.236.53-.442.742a2.568 2.568 0 0 1-.752.525 4.755 4.755 0 0 1-.934.325l-3.028.713-1.573-6.678 2.745-.646c.27-.064.563-.111.877-.142a2.9 2.9 0 0 1 .902.046c.287.062.543.191.768.387.225.196.383.485.474.869.084.358.064.675-.06.95a1.644 1.644 0 0 1-.59.686l.006.028zm1.414-3.717l2.877-.678c.327-.077.66-.12.999-.131.34-.01.656.038.95.145.294.107.553.281.776.524.223.243.384.575.483.996a2 2 0 0 1-.047 1.151 2.015 2.015 0 0 1-.698.926l2.335 2.307-2.584.609-1.845-2.084-.066.015.562 2.386-2.169.511-1.573-6.677zm2.815 2.313l.443-.104c.076-.018.157-.044.246-.078a.805.805 0 0 0 .235-.14.598.598 0 0 0 .159-.216.492.492 0 0 0 .012-.307.528.528 0 0 0-.133-.267.43.43 0 0 0-.206-.116.696.696 0 0 0-.242-.013c-.084.01-.161.023-.23.039l-.537.127.253 1.075z"/><path d="M131.144 192.134l2.386-.562 4.176 6.064-2.442.576-.58-.899-2.122.5-.099 1.058-2.377.56 1.058-7.297zm1.709 2.056l-.158 1.78 1.084-.256-.926-1.524zm5.325 3.335l-1.573-6.677 2.49-.587a7.415 7.415 0 0 1 1.55-.201c.506-.009.972.07 1.4.238.428.168.802.437 1.121.806.319.369.554.875.705 1.516.138.585.152 1.116.042 1.593-.11.477-.309.894-.596 1.25a3.662 3.662 0 0 1-1.074.895 5.27 5.27 0 0 1-1.387.536l-2.678.631zm1.036-5.281l.671 2.848.415-.097c.528-.125.906-.335 1.135-.631.229-.296.282-.705.159-1.227-.102-.434-.323-.739-.663-.914-.34-.176-.746-.208-1.218-.097l-.499.118zm12.23-.522l-1.829.431.597 2.537-2.244.529-1.573-6.677 2.235-.527.533 2.264 1.83-.431-.533-2.264 2.254-.531 1.573 6.678-2.245.528-.598-2.537zm7.131 1.197c-.522.123-.993.158-1.414.105a2.813 2.813 0 0 1-1.106-.367 2.445 2.445 0 0 1-.786-.756 3.278 3.278 0 0 1-.449-1.063l-.956-4.056 2.245-.529.898 3.811c.075.32.211.552.407.695.197.143.436.181.719.114.283-.066.481-.207.592-.423.112-.215.13-.483.055-.804l-.898-3.81 2.236-.527.955 4.056c.093.396.113.781.058 1.156a2.526 2.526 0 0 1-.389 1.032 2.891 2.891 0 0 1-.846.826c-.358.237-.799.418-1.321.54zm6.499-1.53a4.465 4.465 0 0 1-1.617.087 4.74 4.74 0 0 1-.76-.16 3.54 3.54 0 0 1-.672-.274l1.017-1.813c.197.133.442.235.734.305.292.071.576.074.853.008a.877.877 0 0 0 .328-.147c.094-.068.126-.162.098-.282a.261.261 0 0 0-.089-.148.595.595 0 0 0-.217-.093 2.894 2.894 0 0 0-.399-.07 18.53 18.53 0 0 0-.627-.062 5.061 5.061 0 0 1-.714-.115 2.374 2.374 0 0 1-.642-.252 1.71 1.71 0 0 1-.509-.452 1.913 1.913 0 0 1-.321-.726c-.098-.415-.096-.787.006-1.117.102-.329.264-.618.488-.866.223-.249.492-.453.806-.613.314-.16.635-.279.961-.356a3.943 3.943 0 0 1 1.404-.062c.496.062.955.213 1.376.452l-1.06 1.753a1.51 1.51 0 0 0-.658-.298 1.546 1.546 0 0 0-.628-.006.974.974 0 0 0-.38.164.247.247 0 0 0-.096.267c.023.1.093.164.209.189.115.026.298.05.549.07.256.019.529.048.816.087.288.038.563.111.824.219s.491.261.69.459c.2.199.34.471.421.817.095.402.098.772.008 1.108-.09.337-.242.635-.457.894-.214.26-.473.477-.777.651a3.566 3.566 0 0 1-.965.382zm5.819-1.371a4.551 4.551 0 0 1-2.377-.072 3.609 3.609 0 0 1-.672-.275l1.017-1.812c.197.132.442.234.734.305.292.07.576.073.853.008a.915.915 0 0 0 .329-.147c.093-.069.126-.163.097-.282a.25.25 0 0 0-.089-.148.613.613 0 0 0-.216-.094c-.1-.026-.233-.05-.4-.07-.168-.02-.376-.041-.627-.061a5.062 5.062 0 0 1-.714-.116 2.374 2.374 0 0 1-.642-.252 1.734 1.734 0 0 1-.509-.452 1.913 1.913 0 0 1-.321-.726c-.097-.415-.095-.787.006-1.116.102-.33.264-.618.488-.867.223-.248.492-.453.806-.613.314-.16.635-.279.962-.356.44-.103.908-.124 1.404-.062.495.063.954.214 1.375.453l-1.06 1.753a1.494 1.494 0 0 0-.658-.298 1.53 1.53 0 0 0-.628-.007.99.99 0 0 0-.38.164.247.247 0 0 0-.096.267c.024.101.093.164.209.19.115.026.298.049.549.07.257.019.529.047.817.086.287.038.562.111.823.219.261.108.491.261.69.46.2.198.34.47.422.816.094.403.097.772.007 1.108-.09.337-.242.635-.457.894-.214.26-.473.477-.777.651a3.566 3.566 0 0 1-.965.382zm2.013-7.721l4.594-1.082.439 1.867-2.48.584.135.576 2.33-.549.411 1.745-2.33.549.147.622 2.641-.622.44 1.867-4.754 1.12-1.573-6.677zm11.175 4.416l-2.245.528-.644-2.735-3.447-3.349 2.707-.638 1.518 1.713.547-2.199 2.641-.622-1.722 4.566.645 2.736zm-59.5 23.19a2.59 2.59 0 0 1-.724.843c-.31.239-.691.411-1.143.517a3.22 3.22 0 0 1-1.189.068 2.772 2.772 0 0 1-1.043-.356 2.732 2.732 0 0 1-.811-.741 2.96 2.96 0 0 1-.485-1.082 2.928 2.928 0 0 1-.048-1.201c.067-.377.203-.718.408-1.02.204-.303.467-.56.788-.772a3.379 3.379 0 0 1 1.093-.462c.377-.089.763-.11 1.158-.064.395.046.736.169 1.022.369l-.671 1.07a1.11 1.11 0 0 0-.561-.253 1.631 1.631 0 0 0-.631.023 1.586 1.586 0 0 0-.593.269 1.512 1.512 0 0 0-.602 1.039 1.84 1.84 0 0 0 .039.672c.056.238.145.448.267.629a1.458 1.458 0 0 0 .99.656c.205.036.418.028.639-.025.256-.06.468-.162.635-.307a1.32 1.32 0 0 0 .369-.496l1.093.624zm5.568-3.349c.098.417.115.816.051 1.195a2.66 2.66 0 0 1-.398 1.03 2.78 2.78 0 0 1-.789.788 3.358 3.358 0 0 1-1.113.475 3.327 3.327 0 0 1-1.204.071 2.786 2.786 0 0 1-1.054-.353 2.688 2.688 0 0 1-.816-.745 2.99 2.99 0 0 1-.488-1.092 2.943 2.943 0 0 1-.051-1.196c.065-.375.199-.712.402-1.012.203-.299.466-.555.79-.768a3.422 3.422 0 0 1 1.111-.466 3.485 3.485 0 0 1 1.206-.08c.388.045.739.157 1.054.334.315.178.585.42.811.726.226.306.389.67.488 1.093zm-1.379.325a1.848 1.848 0 0 0-.264-.615 1.567 1.567 0 0 0-.433-.437 1.499 1.499 0 0 0-.562-.222 1.6 1.6 0 0 0-.651.024 1.567 1.567 0 0 0-.589.268 1.498 1.498 0 0 0-.596 1.034c-.026.216-.012.438.042.667.056.238.146.449.269.633a1.486 1.486 0 0 0 1.64.648c.226-.053.422-.143.589-.269a1.498 1.498 0 0 0 .597-1.045 1.919 1.919 0 0 0-.042-.686zm7.215-1.692c.109.462.116.881.022 1.258a2.494 2.494 0 0 1-.491.989 2.95 2.95 0 0 1-.849.703 4.06 4.06 0 0 1-1.049.409l-1.99.468-1.243-5.278 1.929-.454a4.916 4.916 0 0 1 1.146-.132c.388 0 .748.067 1.082.201.334.134.629.349.884.646.256.296.442.693.559 1.19zm-1.342.316c-.07-.298-.177-.534-.321-.707a1.303 1.303 0 0 0-.503-.378 1.633 1.633 0 0 0-.617-.118c-.22 0-.441.025-.662.077l-.64.151.727 3.087.61-.144c.231-.055.448-.133.649-.236a1.63 1.63 0 0 0 .505-.39c.135-.158.228-.348.279-.569.051-.222.042-.48-.027-.773zm2.819 2.137l-1.243-5.278 3.587-.845.255 1.081-2.344.552.233.992 2.216-.522.241 1.021-2.216.522.258 1.096 2.48-.584.256 1.088-3.723.877zm9.099-2.914a2.615 2.615 0 0 1-.724.843 2.96 2.96 0 0 1-1.144.517c-.412.097-.808.12-1.189.068a2.767 2.767 0 0 1-1.042-.356 2.714 2.714 0 0 1-.812-.742 2.948 2.948 0 0 1-.485-1.081 2.928 2.928 0 0 1-.048-1.201c.067-.378.203-.718.408-1.02a2.78 2.78 0 0 1 .789-.772 3.343 3.343 0 0 1 1.092-.462 3.327 3.327 0 0 1 1.158-.065c.396.046.736.169 1.022.369l-.67 1.071a1.118 1.118 0 0 0-.561-.253 1.63 1.63 0 0 0-.631.022 1.596 1.596 0 0 0-.593.27 1.504 1.504 0 0 0-.603 1.039c-.029.214-.016.438.039.671.056.239.145.449.268.63.122.181.266.326.433.437.166.11.352.183.556.219.205.035.418.027.639-.025.256-.06.468-.163.636-.307.167-.144.29-.31.368-.496l1.094.624zm5.568-3.35c.098.418.115.816.05 1.196a2.68 2.68 0 0 1-.397 1.03 2.78 2.78 0 0 1-.789.788 3.393 3.393 0 0 1-1.114.475 3.326 3.326 0 0 1-1.204.071 2.793 2.793 0 0 1-1.054-.354 2.672 2.672 0 0 1-.816-.744 2.987 2.987 0 0 1-.488-1.093 2.978 2.978 0 0 1-.051-1.196c.066-.374.2-.711.402-1.011.203-.299.466-.556.79-.768a3.455 3.455 0 0 1 1.111-.467 3.49 3.49 0 0 1 1.207-.079c.387.045.738.156 1.053.334.315.178.585.419.811.726.226.306.389.67.489 1.092zm-1.38.325a1.852 1.852 0 0 0-.264-.614 1.554 1.554 0 0 0-.433-.437 1.5 1.5 0 0 0-.561-.222 1.582 1.582 0 0 0-.651.023 1.561 1.561 0 0 0-.589.269 1.554 1.554 0 0 0-.404.449 1.497 1.497 0 0 0-.192.584 1.92 1.92 0 0 0 .041.667c.057.239.146.45.269.633.123.184.268.332.435.445.167.113.353.188.558.226.206.038.421.031.647-.022a1.513 1.513 0 0 0 1.186-1.314 1.925 1.925 0 0 0-.042-.687zm2.858 2.136l-1.243-5.278 1.296-.305.982 4.167 2.065-.487.262 1.111-3.362.792zm3.965-.934l-1.243-5.278 1.296-.305.982 4.167 2.065-.487.262 1.111-3.362.792zm3.965-.934l-1.244-5.278 3.588-.845.255 1.081-2.344.552.233.992 2.216-.522.241 1.021-2.216.522.258 1.096 2.48-.584.256 1.088-3.723.877zm9.24-2.515a4.228 4.228 0 0 1-.838.544c-.329.167-.7.299-1.112.396a3.44 3.44 0 0 1-1.227.076 2.663 2.663 0 0 1-1.874-1.081 2.933 2.933 0 0 1-.486-1.085 2.928 2.928 0 0 1-.048-1.201c.067-.378.203-.718.408-1.02.204-.303.467-.56.788-.772a3.379 3.379 0 0 1 1.093-.462c.422-.1.829-.129 1.221-.087.391.041.725.142 1.002.303l-.598 1.108a1.455 1.455 0 0 0-.581-.236 1.735 1.735 0 0 0-.734.027 1.6 1.6 0 0 0-.596.27c-.172.127-.311.28-.417.46-.106.18-.175.38-.205.599-.03.22-.018.449.039.688.057.243.145.458.263.646a1.444 1.444 0 0 0 1.03.674c.223.034.465.02.726-.042.151-.035.292-.08.422-.134.13-.055.248-.12.351-.197l-.226-.962-1.018.24-.242-1.029 2.201-.518.658 2.795zm1.131.072l-1.243-5.278 3.588-.845.254 1.081-2.344.552.234.992 2.216-.522.24 1.021-2.216.522.258 1.096 2.48-.584.257 1.088-3.724.877zm5.763-2.05c.049.209.016.4-.1.575a.765.765 0 0 1-.482.333.82.82 0 0 1-.592-.08.71.71 0 0 1-.354-.759.754.754 0 0 1 .111-.274.823.823 0 0 1 .491-.348.772.772 0 0 1 .58.084.709.709 0 0 1 .346.469zm5.597-1.397a2.59 2.59 0 0 1-.724.843c-.31.239-.691.411-1.143.518a3.241 3.241 0 0 1-1.189.067 2.754 2.754 0 0 1-1.043-.356 2.732 2.732 0 0 1-.811-.741 2.96 2.96 0 0 1-.485-1.082 2.924 2.924 0 0 1-.048-1.2 2.62 2.62 0 0 1 .407-1.021c.205-.303.468-.56.789-.772a3.379 3.379 0 0 1 1.093-.462c.377-.089.763-.11 1.158-.064.395.046.736.169 1.022.369l-.671 1.07a1.11 1.11 0 0 0-.561-.253 1.631 1.631 0 0 0-.631.023 1.586 1.586 0 0 0-.593.269 1.512 1.512 0 0 0-.602 1.039 1.84 1.84 0 0 0 .039.672c.056.238.145.448.267.629a1.458 1.458 0 0 0 .99.656c.205.036.418.028.639-.025.256-.06.468-.162.635-.307a1.32 1.32 0 0 0 .369-.496l1.093.624zm4.25-.23l-.658-.938-2.066.486-.147 1.129-1.402.33.995-5.805 1.251-.295 3.459 4.756-1.432.337zm-2.343-3.532l-.252 1.972 1.342-.316-1.09-1.656z"/></g><path d="M1.23 127.83c-1.384-5.875-1.601-11.442-.65-16.699.95-5.258 2.823-10.003 5.619-14.237 2.797-4.233 6.416-7.84 10.857-10.819 4.441-2.979 9.427-5.12 14.956-6.423 5.668-1.335 11.24-1.681 16.717-1.038 5.478.643 10.276 2.121 14.395 4.434L52.286 104.86a13.735 13.735 0 0 0-6.149-2.874c-2.293-.444-4.719-.366-7.276.237-2.074.488-3.923 1.307-5.55 2.456a14.042 14.042 0 0 0-3.972 4.273c-1.022 1.7-1.681 3.625-1.978 5.774-.296 2.149-.159 4.433.411 6.852.569 2.419 1.476 4.485 2.718 6.199 1.243 1.713 2.701 3.103 4.374 4.167a14.03 14.03 0 0 0 5.462 2.051c1.969.303 3.955.218 5.959-.254 2.834-.668 5.132-1.829 6.894-3.484 1.762-1.656 3.044-3.417 3.844-5.283l19.411 14.578c-2.536 4.099-5.991 7.703-10.366 10.813-4.374 3.109-9.637 5.389-15.788 6.838-5.53 1.302-10.951 1.594-16.263.876-5.313-.718-10.169-2.365-14.569-4.94s-8.194-5.985-11.383-10.231c-3.189-4.246-5.467-9.272-6.835-15.078z" fill="#f58092" fill-rule="nonzero"/><path d="M109.894 143.16a50.484 50.484 0 0 1-8.944 1.286c-2.99.158-5.934.049-8.831-.327a53.1 53.1 0 0 1-8.347-1.754c-2.668-.795-5.13-1.801-7.387-3.021l11.175-19.922c2.167 1.459 4.856 2.577 8.067 3.353 3.21.776 6.336.805 9.377.089 1.382-.326 2.587-.865 3.613-1.617 1.027-.753 1.385-1.786 1.076-3.099-.163-.691-.491-1.234-.986-1.628-.494-.394-1.286-.737-2.375-1.027-1.09-.29-2.555-.547-4.395-.77-1.84-.224-4.136-.449-6.889-.676a56.01 56.01 0 0 1-7.85-1.269c-2.549-.604-4.901-1.527-7.054-2.771-2.153-1.243-4.021-2.901-5.603-4.972-1.582-2.071-2.756-4.731-3.521-7.98-1.075-4.562-1.053-8.652.064-12.271 1.117-3.619 2.904-6.794 5.362-9.525 2.457-2.731 5.411-4.977 8.863-6.739 3.452-1.761 6.974-3.065 10.569-3.912 4.838-1.139 9.982-1.366 15.433-.68 5.451.685 10.492 2.343 15.124 4.973L114.778 88.17a16.49 16.49 0 0 0-7.228-3.276c-2.672-.502-4.975-.524-6.91-.069-1.797.424-3.188 1.025-4.172 1.804-.983.779-1.337 1.756-1.06 2.931.26 1.105 1.026 1.801 2.297 2.085 1.27.284 3.282.54 6.035.767 2.822.211 5.814.527 8.978.949a36.088 36.088 0 0 1 9.048 2.41 23.21 23.21 0 0 1 7.592 5.051c2.192 2.183 3.736 5.175 4.631 8.977 1.042 4.423 1.069 8.484.08 12.183-.99 3.698-2.662 6.973-5.018 9.826-2.355 2.853-5.204 5.239-8.546 7.157a39.292 39.292 0 0 1-10.611 4.195zm63.969-15.068a50.484 50.484 0 0 1-8.944 1.286c-2.99.157-5.934.048-8.831-.327a53.1 53.1 0 0 1-8.347-1.754c-2.668-.795-5.13-1.801-7.387-3.021l11.175-19.922c2.167 1.459 4.856 2.577 8.066 3.353 3.211.775 6.337.805 9.378.089 1.382-.326 2.587-.865 3.613-1.617 1.027-.753 1.385-1.786 1.076-3.099-.163-.691-.492-1.234-.986-1.628-.494-.394-1.286-.737-2.375-1.027-1.09-.291-2.555-.547-4.395-.771a185.98 185.98 0 0 0-6.889-.675 55.866 55.866 0 0 1-7.85-1.27c-2.549-.603-4.901-1.526-7.054-2.77-2.153-1.244-4.021-2.901-5.603-4.972-1.582-2.072-2.756-4.731-3.521-7.98-1.075-4.562-1.053-8.652.064-12.271 1.117-3.619 2.904-6.794 5.362-9.525 2.457-2.731 5.411-4.977 8.863-6.739 3.451-1.761 6.974-3.065 10.568-3.912 4.839-1.139 9.983-1.366 15.434-.681 5.451.686 10.492 2.344 15.124 4.973l-11.657 19.27a16.479 16.479 0 0 0-7.228-3.276c-2.672-.502-4.975-.525-6.91-.069-1.797.424-3.188 1.025-4.172 1.804-.983.778-1.337 1.755-1.06 2.93.26 1.106 1.026 1.801 2.297 2.086 1.27.284 3.282.54 6.035.767 2.822.21 5.814.527 8.978.949a36.1 36.1 0 0 1 9.048 2.41 23.195 23.195 0 0 1 7.592 5.051c2.192 2.183 3.736 5.175 4.631 8.977 1.042 4.423 1.069 8.484.079 12.182-.989 3.699-2.661 6.974-5.017 9.827-2.355 2.853-5.204 5.238-8.546 7.156a39.308 39.308 0 0 1-10.611 4.196zm78.784-61.345c2.013.183 3.927.644 5.743 1.383a18.84 18.84 0 0 1 4.895 2.896 17.308 17.308 0 0 1 3.651 4.119 15.969 15.969 0 0 1 2.09 4.924c1.01 4.286.978 8.178-.094 11.677-1.073 3.499-2.829 6.575-5.268 9.229-2.438 2.654-5.384 4.861-8.835 6.623a47.701 47.701 0 0 1-10.776 3.961 48.837 48.837 0 0 1-11.347 1.305c-3.833-.01-7.472-.593-10.918-1.751-3.446-1.158-6.626-2.889-9.54-5.194-2.914-2.305-5.319-5.313-7.214-9.025l21.746-10.813c.838 1.7 2.248 3.118 4.231 4.256 1.982 1.138 4.252 1.406 6.809.804.692-.163 1.397-.42 2.117-.772a7.084 7.084 0 0 0 1.878-1.318 5.105 5.105 0 0 0 1.201-1.87c.268-.72.288-1.563.06-2.531-.521-2.212-1.83-3.435-3.928-3.671-2.099-.235-4.772.03-8.02.795l-7.051 1.661-4.005-17.003 7.88-1.856c2.626-.619 4.649-1.478 6.068-2.579 1.418-1.1 1.884-2.687 1.395-4.76-.374-1.59-1.257-2.549-2.647-2.878a8.93 8.93 0 0 0-4.16-.005c-1.728.407-3.192 1.317-4.391 2.73-1.199 1.413-1.727 3.197-1.584 5.352l-24.061.525c.3-4.302 1.269-8.087 2.907-11.354 1.638-3.268 3.73-6.077 6.277-8.428a34.412 34.412 0 0 1 8.592-5.799c3.181-1.515 6.396-2.656 9.645-3.421 3.248-.765 6.694-1.157 10.337-1.176 3.643-.02 7.089.518 10.338 1.613 3.249 1.095 6.094 2.796 8.534 5.103 2.44 2.307 4.116 5.396 5.028 9.266.977 4.147.666 7.704-.934 10.671-1.599 2.966-3.848 5.265-6.746 6.896l.097.415z" fill="#f58092" fill-rule="nonzero"/><path d="M33.299 156.623l-.091.022c-2.315.835-2.977 2.536-2.568 4.275.41 1.739 1.896 3.128 4.368 2.546 2.471-.582 3.181-2.488 2.771-4.227-.453-1.922-2.009-3.198-4.48-2.616zm11.88 11.885c-1.14 5.002-4.616 12.39-5.838 13.354-.459-3.177-.584-7.398-.697-10.752l-.212-4.587c-.366-1.556-1.933-2.056-3.855-1.603-1.556.366-3.031 1.486-3.052 3.037.011.867.017 2.121.109 3.742.195 4.108.708 9.976 1.721 14.278.69 2.928 1.439 4.877 3.727 4.338 3.477-.819 8.784-10.28 11.581-21.372-.453-1.922-2.343-2.153-3.484-.435z" fill="#2ed3b0" fill-rule="nonzero"/><path d="M51.058 167.22l-.475-6.94c-.389-1.647-2.391-1.948-4.039-1.56-1.647.388-2.912 1.169-2.842 2.698l.562 7.306.265 3.994c.378 5.707.605 9.131.697 12.394.345 1.464 2.138 2.105 4.152 1.63 1.556-.366 2.939-1.465 3.046-2.649.235-10.488 3.047-22.743 4.786-23.152.092-.022.377.78.658 1.97.517 2.196.717 5.917.637 10.089-.096 2.052-.138 5.153.422 7.532.539 2.288 1.568 3.785 3.948 3.224 5.399-1.272 8.999-9.365 11.005-20.946-.345-1.464-2.774-2.341-3.349-.274-1.178 6.074-2.571 11.232-4.509 14.49-.301-1.282-.113-1.712-.103-4.13-.157-3.537-.239-7.575-1.015-10.87-.905-3.844-3.016-6.244-6.769-5.361-3.478.82-5.679 5.009-7.077 10.555zm59.288-22.66c-.927-3.935-5.004-7.708-10.037-6.523-1.465.345-2.794.852-3.995 1.907-1.2 1.056-4.446 4.912-3.821 7.566.173.732 1.347 1.615 2.262 1.399.824-.194 1.432-1.303 1.975-2.687l.022.091c.543-1.383 1.254-3.29 2.26-3.527 1.282-.301 2.876 1.545 3.393 3.741.733 3.112-1.226 6.278-4.693 7.964l-.549.13c-.985.328-1.27 1.168-1.076 1.992.259 1.098 1.212 1.453 2.127 1.238.274-.065.457-.108.802-.286 4.016-.173 5.998 1.679 6.602 4.241.948 4.027-1.339 7.85-3.719 8.411-1.555.366-3.16-.705-4.071-4.161-.194-.824-1.12-1.475-2.218-1.216-.916.215-1.723.889-1.421 2.17 1.078 4.576 5.682 8.128 10.716 6.943 6.315-1.488 10.055-8.165 8.675-14.022-.647-2.746-2.596-5.281-5.913-6.239 2.428-2.407 3.455-5.837 2.679-9.132zm26.195 9.093c.107-2.827-.168-6.046-.815-8.792-1.768-7.505-5.791-13.512-11.988-12.343-7.504 1.768-9.37 14.766-6.998 24.833 1.66 7.047 5.532 12.414 11.298 11.056 5.675-1.337 8.247-7.642 8.503-14.754zm-3.785-.075c-.139 1.869-1.085 9.336-3.282 9.854-1.738.409-3.823-3.93-4.836-8.231-1.747-7.413-.689-18.096 2.057-18.742 1.922-.453 4.4 5.146 5.262 8.807.582 2.471.858 5.69.799 8.312zm53.184-18.227c-1.162 4.911-2.986 9.881-4.536 13.144-.399-4.157-.696-9.11-.929-13.789-.097-1.232-.033-2.6-.13-3.833 3.265-10.333 7.978-26.416 6.404-33.097-.755-3.203-2.65-4.688-6.036-3.891-9.336 2.199-8.081 23.929-7.567 33.081l.108 2.1c.183 1.599.254 3.128.276 4.862-1.374-1.319-3.377-1.62-5.299-1.168-1.647.389-6.363 3.335-8.741 8.822-1.388 3.128-2.012 7.042-.869 11.893.776 3.295 3.302 7.047 8.061 5.926 3.844-.906 6.271-4.955 7.945-8.923.086 2.008.086.366.431 1.83.797 3.386 2.246 4.204 3.985 3.795 3.295-.776 7.352-8.977 10.171-19.977.096-.41.053-.593-.011-.867-.367-1.556-2.558-1.426-3.263.092zm-3.251-37.584c.28-.453.35-.566.442-.587-.092.021.038.57.232 1.394 1.056 4.485-1.127 14.079-3.597 22.872-.443-7.624-.333-19.048 2.923-23.679zm-8.813 44.193l-.021-.091c-.097 2.051-3.228 12.545-6.156 13.235l-.275.065c-1.023-.242-2.105-1.147-2.429-2.519-1.25-5.309 2.57-16.158 5.498-16.848.458-.108.884.468 1.056 1.2-.108-.457-.032.684-.037 1.072l.07-.113a3.569 3.569 0 0 0 0 1.642c.194.823 1.099 1.383 2.014 1.168l.183-.044.097 1.233z" fill="#2ed3b0" fill-rule="nonzero"/><path d="M201.914 133.038l-.022-.092c.129-1.093.026-1.938-.124-2.579-.82-3.478-4.406-4.758-7.334-4.068-4.76 1.121-7.801 5.025-9.409 9.268-1.539 4.13-1.807 8.733-1.139 11.57 1.078 4.576 4.261 7.014 7.921 6.152 2.655-.625 5.54-3.14 7.843-8.126a.697.697 0 0 0-.005.387c.091-.021.113.07.177.345.863 3.661 2.667 5.168 4.772 4.672 3.478-.819 9.129-8.816 10.935-20.833 1.049-1.696-2.747-2.638-3.231-.592-.903 6.009-3.781 13.063-5.606 14.748-.512-2.584-.675-5.733-.611-8.743-.431-1.83-2.315-2.449-4.054-2.039l-.183.043s.091-.022.07-.113zm-2.681 2.563c-1.845 8.163-4.783 12.912-6.797 13.386-.823.194-1.545-.409-1.976-2.239-.367-1.556-.378-4.065.143-7.182.28-2.095 2.615-9.407 5.543-10.097 1.099-.258 2.003.301 2.284 1.491l-.059.98c-.027.296-.033.684.097 1.233.151.641.759 1.174 1.352 1.227-.302.361-.512.7-.587 1.201z" fill="#2ed3b0" fill-rule="nonzero"/><path d="M218.434 122.384l-.064-.275c-.345-1.464-2.187-1.9-3.834-1.512-1.648.389-3.031 1.487-2.982 2.925.07 1.529-.048 3.489-.171 5.836-.08 4.173-.396 8.981.639 13.374.862 3.66 2.93 5.878 6.682 4.994 3.112-.733 5.571-5.466 7.174-10.963.163 4.791.082 4.038.186 9.809-5.473 11.626-10.46 24.489-9.124 30.163.712 3.021 2.941 5.104 6.51 4.263 10.525-2.479 9.532-34.993 9.455-41.06 1.76-3.603 3.514-6.817 5.08-9.601l3.299-6.09c.189-.431.307-.749.221-1.115-.194-.824-1.077-1.292-2.084-1.055-.366.087-.781.377-1.222.964-1.577 1.917-3.757 6.198-5.473 9.984l-.405-5.411-.276-6.504-.044-1.825c-.41-1.739-2.434-2.132-4.173-1.722-1.464.345-2.891 1.261-2.977 2.537-.121 8.915-3.251 22.694-5.448 23.211l-.366-1.556c-1.164-4.942-.934-10.116-.671-14.332.117-1.959.273-3.348.068-5.039zm2.512 54.953c-.183.044-.425-.576-.641-1.491-1.013-4.301 2.844-14.58 5.621-20.837-.713 10.504-3.058 21.876-4.98 22.328z" fill="#2ed3b0" fill-rule="nonzero"/><path d="M257.882 119.661c-.41-1.739-1.907-2.353-3.392-.457-.785 4.049-3.31 6.865-5.732 8.885l-.63-.624-.495-.463c-2.661-2.272-3.905-4.683-4.401-6.788-.69-2.929-.044-5.11.78-5.304.274-.065.538.646.775 1.653.302 1.281.281 2.832-.306 4.032-.258.544-.215.727-.172.91.194.824 1.121 1.475 2.127 1.238 1.739-.409 2.228-4.485 1.711-6.682-.625-2.654-2.774-5.625-6.252-4.806-5.583 1.315-6.486 7.324-4.611 12.002.991 2.568 2.666 5.168 4.513 6.858.722.603 1.443 1.206 1.89 1.873-2.104 2.138-2.615 4.48-2.249 6.036.518 2.197 2.462 3.478 4.933 2.895 2.562-.603 6.443-4.222 5.409-8.615-.173-.732-.437-1.443-.884-2.11 2.928-2.332 5.797-5.327 6.986-10.533zm-12.756 15.563c-.291 1.227-.436 1.841-.597 1.976.091-.022.07-.113.026-.297-.086-.366-.032-.958.549-1.771l.022.092z" fill="#2ed3b0" fill-rule="nonzero"/></svg>